# xmcd
#
# Track frame offsets:
#	150
#	26070
#	43502
#	58515
#	77732
#	99660
#	116400
#	131997
#	152012
#	165320
#
# Disc length: 2427 seconds
#
# Revision: 0
# Processed by: cddbd v1.4PL0 Copyright (c) Steve Scherf et al.
# Submitted via: EasyCDDAExtractor 4.6.9.1
#
DISCID=7909790a
DTITLE=Coco Robicheaux  - Louisiana Medicine Man
DYEAR=1997
DGENRE=Blues
TTITLE0=Cottonmouth
TTITLE1=Tumblin' out
TTITLE2=Weight of the world
TTITLE3=Love of a woman
TTITLE4=Juanita
TTITLE5=Where you go to pray
TTITLE6=When the nightingale sings
TTITLE7=3.33 Blues
TTITLE8=Whatever I want
TTITLE9=Louisiana medicine man
EXTD=
EXTT0=
EXTT1=
EXTT2=
EXTT3=
EXTT4=
EXTT5=
EXTT6=
EXTT7=
EXTT8=
EXTT9=
PLAYORDER=
